<?xml version="1.0" encoding="utf-8"?>
<!-- Generator: Adobe Illustrator 26.3.1, SVG Export Plug-In . SVG Version: 6.00 Build 0)  -->
<svg version="1.1" id="Layer_1" xmlns="http://www.w3.org/2000/svg" xmlns:xlink="http://www.w3.org/1999/xlink" x="0px" y="0px"
	 width="300px" height="300px" viewBox="0 0 300 300" style="enable-background:new 0 0 300 300;" xml:space="preserve">
<style type="text/css">
	.st0{fill:url(#SVGID_1_);}
	.st1{fill:url(#SVGID_00000112628007684184425230000009040884523237606334_);}
	.st2{fill:url(#SVGID_00000012448542552994700700000010446683479765075879_);}
	.st3{fill:url(#SVGID_00000170957528119606554980000016929973252267990192_);}
	.st4{fill:url(#SVGID_00000084506945112538942740000018369075978385669816_);}
	.st5{fill:url(#SVGID_00000039848798331778392420000007440071528921213332_);}
	.st6{fill:url(#SVGID_00000097457919299282055100000010686890095318656419_);}
	.st7{fill:url(#SVGID_00000111186120604095485550000012636432398313339831_);}
	.st8{fill:url(#SVGID_00000115515295148015913300000008835172544082951829_);}
	.st9{fill:url(#SVGID_00000013884653077874808550000010410705823560545154_);}
	.st10{fill:url(#SVGID_00000087371301127851804210000001655215475975749284_);}
	.st11{fill:url(#SVGID_00000061470560092991481890000006416848579200874376_);}
	.st12{fill:url(#SVGID_00000000190221960544062790000005913672259862234795_);}
	.st13{fill:url(#SVGID_00000010282188177299560370000011181217341886549662_);}
	.st14{fill:url(#SVGID_00000060023062616994812530000007791435890658330755_);}
	.st15{fill:url(#SVGID_00000073698834573015893610000018251879206706754495_);}
	.st16{fill:url(#SVGID_00000047051603765135437220000003239628067698208655_);}
	.st17{fill:url(#SVGID_00000104689850256502782430000008184089811716497293_);}
	.st18{fill:url(#SVGID_00000054230758355733505550000013776770269464054432_);}
	.st19{fill:url(#SVGID_00000132773377525405413500000001038781502851848873_);}
	.st20{fill:url(#SVGID_00000067231377155600312140000011417500668953794459_);}
	.st21{fill:url(#SVGID_00000053519888127817764880000008469081097500249012_);}
	.st22{fill:url(#SVGID_00000156556207446626747860000003429116366391328643_);}
	.st23{fill:url(#SVGID_00000065778185435148832550000010619665030501063081_);}
	.st24{fill:url(#SVGID_00000139277322956007112980000000782409216395779746_);}
</style>
<linearGradient id="SVGID_1_" gradientUnits="userSpaceOnUse" x1="30.4728" y1="150.2557" x2="305.4433" y2="150.2557">
	<stop  offset="0" style="stop-color:#E5473B"/>
	<stop  offset="1" style="stop-color:#FFFFFF"/>
</linearGradient>
<path class="st0" d="M202.8,97.3c-1,0.3-1.7,0.6-2.4,0.8c-16.4,5.9-32.7,11.9-49.1,17.8c-0.8,0.3-1.8,0.3-2.6,0
	c-14.7-5.3-29.5-10.6-44.2-16c-2.4-0.9-4.8-1.7-7.4-2.7c0,4.1,0,7.9,0,11.7c0,1.6,0.4,3,1.7,4c2.1,1.7,4.2,3.5,6.5,4.8
	c10.2,5.7,21.2,9,32.8,10.5c18.9,2.5,36.9-0.7,54-9c3.2-1.5,6-3.9,8.9-6c1.4-1,1.9-2.6,1.9-4.4c-0.1-2,0-4.1,0-6.1
	C202.8,101.1,202.8,99.3,202.8,97.3 M195.5,137.4c-0.6,0.2-1.2,0.5-1.8,0.7c-6.5,2.2-13,4.7-19.6,6.6c-9.5,2.8-19.2,4-29.2,3.2
	c-10.7-0.9-21-3.6-31.1-7.1c-3.1-1.1-6.3-2.3-9.4-3.5c1.1,18.2,17.6,38.6,43.1,39.9C174.9,178.5,193.9,157.7,195.5,137.4 M83.5,73.7
	c0.7,0.3,1,0.4,1.4,0.5c21.3,7.1,42.7,14.3,64,21.4c0.6,0.2,1.4,0.2,2.1-0.1c20.7-7.1,41.5-14.2,62.2-21.3c0.5-0.2,0.9-0.4,1.6-0.6
	c-0.6-0.2-0.8-0.3-1.1-0.4c-20.9-7.2-41.8-14.3-62.8-21.4c-0.7-0.2-1.5-0.2-2.2,0c-15.2,5-30.3,10.1-45.5,15.2
	C96.7,69.3,90.3,71.5,83.5,73.7 M115.6,185.2c-0.5-0.3-0.8-0.5-1.1-0.7c-16.6-9.6-26.1-24.1-29.1-42.8c-0.7-4.5-0.6-9.1-0.9-13.6
	c0-0.5-0.4-1.1-0.8-1.5c-1.5-1.6-3.1-3-4.5-4.7c-1.5-1.8-2.1-4-2.1-6.4c0-8.1,0-16.2,0-24.3c0-1.1-0.3-1.6-1.3-2
	c-13.5-4.9-27.1-9.8-40.6-14.7c-0.4-0.2-0.9-0.4-1.6-0.7c3.7-1.4,7.2-2.6,10.7-3.9C79,57.2,113.7,44.6,148.4,32c1.1-0.4,2-0.4,3.1,0
	c37.8,13.8,75.6,27.5,113.4,41.2c0.4,0.1,0.7,0.3,1.4,0.6c-2.2,0.8-4,1.5-6,2.2c-0.9,0.3-1.3,0.8-1.2,1.8c0,7.4,0,14.8,0,22.3
	c0,0.6,0,1.2,0,1.9h-7.2V79.1c-2.1,0.8-4.1,1.5-6,2.2c-7.2,2.6-14.5,5.3-21.7,7.9c-1,0.4-1.4,0.8-1.4,2c0.1,7.6-0.2,15.1,0.1,22.7
	c0.2,4.8-1.6,8.5-5,11.4c-1.8,1.5-2.4,3-2.4,5.4c-0.1,16.4-4.9,31-16.2,43.2c-3.9,4.2-8.5,7.7-13.5,10.6c-0.4,0.2-0.8,0.5-1.4,0.8
	c0.5,0.2,0.8,0.4,1.1,0.5c28.3,10.5,46.3,30.6,55.1,59.2c1.3,4.1,2.1,8.4,2.9,12.6c1,5.1-2.4,10.1-7.4,11.1
	c-5.2,1.1-10.3-2.2-11.3-7.4c-1.9-9.7-5.8-18.7-11.2-26.9c-9.7-14.8-22.5-26-39.1-32.2c-21.9-8.2-42.9-5.8-62.5,6.6
	c-18.6,11.8-30.5,28.8-36,50.2c-0.2,0.6-0.3,1.2-0.4,1.9c-0.9,5.4-5.8,8.8-11.2,8c-5-0.8-8.6-5.7-7.8-10.9c2-12.8,6.2-24.9,13.1-36
	c10.7-17.2,25.6-29,44.5-36C114.6,185.6,115,185.4,115.6,185.2"/>
</svg>
