<?xml version="1.0" encoding="utf-8"?>
<!-- Generator: Adobe Illustrator 26.3.1, SVG Export Plug-In . SVG Version: 6.00 Build 0)  -->
<svg version="1.1" id="Layer_1" xmlns="http://www.w3.org/2000/svg" xmlns:xlink="http://www.w3.org/1999/xlink" x="0px" y="0px"
	 width="300px" height="300px" viewBox="0 0 300 300" style="enable-background:new 0 0 300 300;" xml:space="preserve">
<style type="text/css">
	.st0{fill:url(#SVGID_1_);}
	.st1{fill:url(#SVGID_00000179617719680897840780000004505847114930364095_);}
	.st2{fill:url(#SVGID_00000017510470546211752400000010536222924974754713_);}
	.st3{fill:url(#SVGID_00000052802571827399145850000009639452570652521362_);}
	.st4{fill:url(#SVGID_00000056398084478794188470000009921765203072909199_);}
	.st5{fill:url(#SVGID_00000098215772231981965320000012653842990308446623_);}
	.st6{fill:url(#SVGID_00000043457794570576298520000015493085242274142869_);}
	.st7{fill:url(#SVGID_00000062876321033249942230000013652421039849803919_);}
	.st8{fill:url(#SVGID_00000109721589066971137450000012530972964069375881_);}
	.st9{fill:url(#SVGID_00000085212440973482780370000000632666415907530664_);}
	.st10{fill:url(#SVGID_00000127006109184291881720000002643453966294430098_);}
	.st11{fill:url(#SVGID_00000054231297919007759560000004031397400659526074_);}
	.st12{fill:url(#SVGID_00000005974370353203955000000000656091121541020049_);}
	.st13{fill:url(#SVGID_00000078735397385182541020000001888937154148931213_);}
	.st14{fill:url(#SVGID_00000096740697274898258740000013456896247548631731_);}
	.st15{fill:url(#SVGID_00000074400669938551295660000011214203537560044684_);}
	.st16{fill:url(#SVGID_00000029762827963108457000000018272092332068211382_);}
	.st17{fill:url(#SVGID_00000087379396782350160760000013483310650862269324_);}
	.st18{fill:url(#SVGID_00000090980074008135958980000001328542125206642618_);}
	.st19{fill:url(#SVGID_00000028285312520294118190000007449818675940283556_);}
	.st20{fill:url(#SVGID_00000077313547178788633820000010004515975510020766_);}
	.st21{fill:url(#SVGID_00000080164955209774557720000014606186065873514660_);}
	.st22{fill:url(#SVGID_00000044875553219427527770000010707129888926486956_);}
	.st23{fill:url(#SVGID_00000142149201532405213560000007182620167331149206_);}
	.st24{fill:url(#SVGID_00000054969239772041548210000015008933402873379714_);}
</style>
<g>
	<linearGradient id="SVGID_1_" gradientUnits="userSpaceOnUse" x1="55.5529" y1="86.7576" x2="322.7205" y2="86.7576">
		<stop  offset="0" style="stop-color:#2966A0"/>
		<stop  offset="1" style="stop-color:#FFFFFF"/>
	</linearGradient>
	<path class="st0" d="M125.2,165.9c-11.6-19.4-22.9-38.4-34.2-57.4c-7.2-12-14.3-24.1-21.5-36.1c-1.1-1.8-0.9-2.9,0.6-4.4
		c8.9-8.4,19.6-13.2,31.4-15.4c14.2-2.7,28.5-4.5,42.7-6.7c10.5-1.6,20.9-3.8,30.6-8.3c12.3-5.7,21.3-14.8,26.8-27.2
		c0.3-0.8,0.7-1.6,1.1-2.3c0-0.1,0.2-0.1,0.7-0.5v2.6c0,22,0,44.1-0.1,66.1c0,2.4,0.6,3.5,3,4.4c17.7,6.1,35.4,12.4,53.5,18.8
		c-0.5,1.4-0.9,2.8-1.5,4.1c-7,16-19.4,26.1-35.8,30.8c-11.9,3.5-24.3,5.4-36.5,7.9c-8.7,1.7-17.6,2.8-26.2,4.8
		C146.8,150.1,134.9,155.5,125.2,165.9"/>
	
		<linearGradient id="SVGID_00000161633938378087321180000010975942127487211434_" gradientUnits="userSpaceOnUse" x1="55.5529" y1="179.5394" x2="322.7205" y2="179.5394">
		<stop  offset="0" style="stop-color:#2966A0"/>
		<stop  offset="1" style="stop-color:#FFFFFF"/>
	</linearGradient>
	<path style="fill:url(#SVGID_00000161633938378087321180000010975942127487211434_);" d="M172.9,292.9c-2.6,0.1-4.3-1.7-5.7-4.1
		c-11.4-19.3-22.9-38.6-34.4-57.9c-30-50.5-60-101-90-151.6c-0.6-1-1.2-2-1.8-3.1c-1.9-3.5-0.8-7.5,2.5-9.3c3.3-1.8,6.9-0.8,8.9,2.7
		c9.7,16.3,19.4,32.6,29.1,48.9c32.2,54.2,64.4,108.3,96.5,162.5c1.1,1.8,1.9,4,1.9,6C179.9,290.5,176.7,293,172.9,292.9"/>
</g>
</svg>
