<?xml version="1.0" encoding="utf-8"?>
<!-- Generator: Adobe Illustrator 26.3.1, SVG Export Plug-In . SVG Version: 6.00 Build 0)  -->
<svg version="1.1" id="Layer_1" xmlns="http://www.w3.org/2000/svg" xmlns:xlink="http://www.w3.org/1999/xlink" x="0px" y="0px"
	 width="300px" height="300px" viewBox="0 0 300 300" style="enable-background:new 0 0 300 300;" xml:space="preserve">
<style type="text/css">
	.st0{fill:url(#SVGID_1_);}
	.st1{fill:url(#SVGID_00000047024417695339244140000009628532113956259759_);}
	.st2{fill:url(#SVGID_00000096757044285298877090000003881637342726172307_);}
	.st3{fill:url(#SVGID_00000088133396336207294390000007153473839290228404_);}
	.st4{fill:url(#SVGID_00000085942747367767453600000011444296355253855151_);}
	.st5{fill:url(#SVGID_00000017480033196349965790000009180901306975463096_);}
	.st6{fill:url(#SVGID_00000093152078487338859520000006751736366352396455_);}
	.st7{fill:url(#SVGID_00000101800659847759803460000010603955065011001255_);}
	.st8{fill:url(#SVGID_00000010994846968932164940000002853938747413458077_);}
	.st9{fill:url(#SVGID_00000145772265243031082190000000670888120216850861_);}
	.st10{fill:url(#SVGID_00000162334100882673059550000006270840859597461910_);}
	.st11{fill:url(#SVGID_00000106145235281629516240000010790869120283991172_);}
	.st12{fill:url(#SVGID_00000123430270801521675560000000925202138336442241_);}
	.st13{fill:url(#SVGID_00000011750527046907520830000002177945579366592170_);}
	.st14{fill:url(#SVGID_00000106849125385790352220000007960211144713896331_);}
	.st15{fill:url(#SVGID_00000006692052093646076350000008403845484276186516_);}
	.st16{fill:url(#SVGID_00000137830418456117562860000017330322157287250875_);}
	.st17{fill:url(#SVGID_00000058577156125734857090000009534980028317153213_);}
	.st18{fill:url(#SVGID_00000016071239016894578910000013158885146388240055_);}
	.st19{fill:url(#SVGID_00000031172140889461783720000013864839514436520367_);}
	.st20{fill:url(#SVGID_00000182491363375598336910000004541366066015069570_);}
	.st21{fill:url(#SVGID_00000036224667399370197000000011849205902282530187_);}
	.st22{fill:url(#SVGID_00000181806503114720875260000011177207878871864724_);}
	.st23{fill:url(#SVGID_00000099632147443035945880000008064786392105605512_);}
	.st24{fill:url(#SVGID_00000002358945434557363080000016419480348565663375_);}
</style>
<g>
	<linearGradient id="SVGID_1_" gradientUnits="userSpaceOnUse" x1="36.8565" y1="246.4417" x2="315.636" y2="246.4417">
		<stop  offset="0" style="stop-color:#2966A0"/>
		<stop  offset="1" style="stop-color:#FFFFFF"/>
	</linearGradient>
	<rect x="23.3" y="239.2" class="st0" width="253.2" height="14.6"/>
	
		<linearGradient id="SVGID_00000173122957409268153310000000622053874895677098_" gradientUnits="userSpaceOnUse" x1="36.8565" y1="83.1941" x2="315.636" y2="83.1941">
		<stop  offset="0" style="stop-color:#2966A0"/>
		<stop  offset="1" style="stop-color:#FFFFFF"/>
	</linearGradient>
	<path style="fill:url(#SVGID_00000173122957409268153310000000622053874895677098_);" d="M265,119.6H34c-0.1-0.8-0.1-1.5-0.1-2.2
		c0-8.2,0.1-16.5-0.1-24.7c0-1.9,0.6-2.7,2.3-3.4C71,75.8,105.9,62.5,140.6,48.6c6.3-2.5,11.4-2.5,17.7,0
		c34.4,13.7,69,26.9,103.6,40.2c2.5,1,3.3,2.1,3.2,4.8c-0.2,7.7-0.1,15.3-0.1,23V119.6z"/>
	
		<linearGradient id="SVGID_00000039105427545276070530000006299956116444921748_" gradientUnits="userSpaceOnUse" x1="36.8565" y1="178.659" x2="315.636" y2="178.659">
		<stop  offset="0" style="stop-color:#2966A0"/>
		<stop  offset="1" style="stop-color:#FFFFFF"/>
	</linearGradient>
	<path style="fill:url(#SVGID_00000039105427545276070530000006299956116444921748_);" d="M188.9,209.7h37.4c0-0.9,0.1-1.8,0.1-2.6
		c0-18.9,0-37.7,0-56.6c0-1.3-0.5-2.8-1.3-3.8c-2.4-3.1-5.1-5.9-7.5-9c-0.6-0.8-0.9-2.2-0.7-3.1c0.2-0.8,1.3-1.5,2.2-2.1
		c0.5-0.3,1.3-0.1,1.9-0.1c10.5,0,20.9,0,31.4,0c1.8,0,3.6,0,4.2,2.2c0.6,2-0.9,2.8-2,4.2c-3.4,4.3-7.8,7.8-7.6,14.5
		c0.4,17.8,0.1,35.6,0.1,53.4v3.2h17.8V225H34v-15.1h17.8v-2.9c0-18.8,0-37.6-0.1-56.3c0-1.4-0.6-3.1-1.5-4.2
		c-2.3-3-4.9-5.7-7.2-8.6c-0.6-0.8-1-2.2-0.7-3.1c0.3-0.9,1.4-1.6,2.3-2.2c0.4-0.3,1.1-0.1,1.7-0.1c10.5,0,21.1,0,31.6,0
		c1.9,0,3.5,0.2,4.1,2.3c0.5,1.9-0.9,2.7-2,4c-3.4,4.3-7.9,7.8-7.8,14.4c0.4,17.8,0.1,35.6,0.1,53.4v3.1h37.4c0-0.8,0.1-1.7,0.1-2.5
		c0-18.9,0-37.7-0.1-56.6c0-1.3-0.6-2.9-1.4-4c-2.3-3-5-5.8-7.4-8.8c-0.6-0.8-0.9-2.2-0.6-3.1c0.2-0.8,1.3-1.5,2.2-2
		c0.5-0.3,1.3-0.1,1.9-0.1c10.5,0,20.9,0,31.4,0c1.8,0,3.5,0.1,4.2,2.2c0.6,2.1-1,2.8-2.1,4.2c-3.4,4.3-7.8,7.8-7.6,14.5
		c0.4,17.8,0.1,35.6,0.1,53.4v3.1h37.5V207c0-18.8,0-37.6-0.1-56.3c0-1.4-0.6-3.1-1.5-4.2c-2.3-3-5-5.8-7.4-8.8
		c-0.6-0.7-0.9-2.1-0.6-2.9c0.3-0.9,1.4-1.6,2.3-2.2c0.4-0.3,1.1-0.1,1.7-0.1c10.5,0,21.1,0,31.6,0c1.7,0,3.4,0.1,4,2.1
		c0.6,2-0.7,2.8-1.9,4.3c-3.5,4.2-7.9,7.8-7.7,14.4c0.4,17.8,0.1,35.6,0.1,53.4V209.7z"/>
</g>
</svg>
