<?xml version="1.0" encoding="utf-8"?>
<!-- Generator: Adobe Illustrator 26.3.1, SVG Export Plug-In . SVG Version: 6.00 Build 0)  -->
<svg version="1.1" id="Layer_1" xmlns="http://www.w3.org/2000/svg" xmlns:xlink="http://www.w3.org/1999/xlink" x="0px" y="0px"
	 width="300px" height="300px" viewBox="0 0 300 300" style="enable-background:new 0 0 300 300;" xml:space="preserve">
<style type="text/css">
	.st0{fill:url(#SVGID_1_);}
	.st1{fill:url(#SVGID_00000130608787246128380200000009034266212378785202_);}
	.st2{fill:url(#SVGID_00000103257958826044604720000000169007771636030390_);}
	.st3{fill:url(#SVGID_00000041282315590940386780000009862706543283106442_);}
	.st4{fill:url(#SVGID_00000041267188474186627000000010210036318826111412_);}
	.st5{fill:url(#SVGID_00000176035543232244725250000016419843865266721922_);}
	.st6{fill:url(#SVGID_00000017486884618463323700000009848073567483747253_);}
	.st7{fill:url(#SVGID_00000115494303220086721850000012518285815593128871_);}
	.st8{fill:url(#SVGID_00000032643132704021222610000013605636793374801317_);}
	.st9{fill:url(#SVGID_00000119838005153946607110000002589455874839707012_);}
	.st10{fill:url(#SVGID_00000090273249112916526680000006078511243864412089_);}
	.st11{fill:url(#SVGID_00000060003950375242078260000013918387975174286995_);}
	.st12{fill:url(#SVGID_00000161607889352661140190000014842129313544779962_);}
	.st13{fill:url(#SVGID_00000037657637968438693500000003831422920818853004_);}
	.st14{fill:url(#SVGID_00000003087423569406593170000007794108831657632922_);}
	.st15{fill:url(#SVGID_00000065775751467894734820000018072516377821564071_);}
	.st16{fill:url(#SVGID_00000048473828664259223470000003629015314161197992_);}
	.st17{fill:url(#SVGID_00000045590867113993309880000004585413058282093975_);}
	.st18{fill:url(#SVGID_00000159461757812939899680000016397709785963873158_);}
	.st19{fill:url(#SVGID_00000167360057551564192000000003214906297291511946_);}
	.st20{fill:url(#SVGID_00000039119304309589109010000014485125978096316836_);}
	.st21{fill:url(#SVGID_00000135651233202846866160000003408770778503506348_);}
	.st22{fill:url(#SVGID_00000132796791339153074500000007324781328408304263_);}
	.st23{fill:url(#SVGID_00000111181282711632306210000013082253594248104582_);}
	.st24{fill:url(#SVGID_00000124859708748591720880000010317555606401334916_);}
</style>
<g>
	<linearGradient id="SVGID_1_" gradientUnits="userSpaceOnUse" x1="43.2401" y1="196.4594" x2="315.9856" y2="196.4594">
		<stop  offset="0" style="stop-color:#E5473B"/>
		<stop  offset="1" style="stop-color:#FFFFFF"/>
	</linearGradient>
	<path class="st0" d="M203.8,240.9c24.4,0,44.3-19.8,44.4-44.4c0.1-24.5-19.8-44.5-44.3-44.5c-24.5,0-44.5,20-44.4,44.4
		C159.5,221,179.3,240.9,203.8,240.9 M261.8,200.1c-0.3,2.1-0.5,4.3-0.9,6.4c-3.3,17.4-12.6,30.8-27.7,39.9
		c-10.1,6.1-21.2,8.8-32.9,7.9c-20.3-1.5-35.8-11.2-46.4-28.6c-6.1-9.9-8.6-20.8-7.9-32.4c1-17,8.3-31,21.4-41.9
		c8.4-7,18.1-11.2,28.9-12.5c16.1-2,30.7,1.9,43.4,12c12.2,9.7,19.4,22.4,21.7,37.8c0.2,1.4,0.3,2.9,0.5,4.3V200.1z"/>
	
		<linearGradient id="SVGID_00000144331653090473455580000002177730506661870246_" gradientUnits="userSpaceOnUse" x1="43.2401" y1="145.984" x2="315.9856" y2="145.984">
		<stop  offset="0" style="stop-color:#E5473B"/>
		<stop  offset="1" style="stop-color:#FFFFFF"/>
	</linearGradient>
	<path style="fill:url(#SVGID_00000144331653090473455580000002177730506661870246_);" d="M158.8,53.7v16.1h-1.5
		c-32.7,0-65.5,0-98.2,0c-3.4,0-5,1.9-5,5c0,47.5,0,95,0,142.5c0,1.4,0.2,2.7,1.2,3.8c0.9,0.9,2.1,1.1,3.4,1.1c11.1,0,22.2,0,33.3,0
		c17,0,34.1,0,51.1,0c0.9,0,1.4,0.2,1.8,1.1c2.3,5,5.2,9.7,8.8,14c0.2,0.3,0.4,0.5,0.7,0.9c-0.6,0-1,0.1-1.3,0.1
		c-31.5,0-63,0-94.5,0c-10.2,0-18.2-6.5-20.2-16.3c-0.3-1.3-0.4-2.6-0.4-3.9c0-48,0-96.1,0-144.1c0-11.4,8.9-20.3,20.3-20.3
		c33,0,66.1,0,99.1,0H158.8z"/>
	
		<linearGradient id="SVGID_00000109708703610691980070000016815790505599225503_" gradientUnits="userSpaceOnUse" x1="43.2401" y1="115.4561" x2="315.9856" y2="115.4561">
		<stop  offset="0" style="stop-color:#E5473B"/>
		<stop  offset="1" style="stop-color:#FFFFFF"/>
	</linearGradient>
	<path style="fill:url(#SVGID_00000109708703610691980070000016815790505599225503_);" d="M108.7,138c23.9-23.7,48-47.6,72-71.5
		c8.7,8.7,17.2,17.3,25.9,25.9c-24,23.9-48,47.8-72.1,71.9C125.8,155.6,117.3,146.8,108.7,138"/>
	
		<linearGradient id="SVGID_00000032632857774114941400000002596316227068578696_" gradientUnits="userSpaceOnUse" x1="43.2401" y1="66.032" x2="315.9856" y2="66.032">
		<stop  offset="0" style="stop-color:#E5473B"/>
		<stop  offset="1" style="stop-color:#FFFFFF"/>
	</linearGradient>
	<path style="fill:url(#SVGID_00000032632857774114941400000002596316227068578696_);" d="M187.6,60.5c3.5-3.7,6.8-7.6,10.5-11
		c5.4-4.9,13.8-4.6,19.1,0.4c2.1,2,4.2,4,6.1,6.1c5.4,5.7,5.2,14.4-0.3,20c-3.1,3.2-6.3,6.3-9.5,9.4c-0.2,0.2-0.4,0.3-0.7,0.6
		C204.4,77.4,195.8,68.8,187.6,60.5"/>
	
		<linearGradient id="SVGID_00000049916131071690346420000007341793520842750113_" gradientUnits="userSpaceOnUse" x1="43.2401" y1="160.6383" x2="315.9856" y2="160.6383">
		<stop  offset="0" style="stop-color:#E5473B"/>
		<stop  offset="1" style="stop-color:#FFFFFF"/>
	</linearGradient>
	<path style="fill:url(#SVGID_00000049916131071690346420000007341793520842750113_);" d="M104.1,144.2c8,8.3,16,16.5,24.1,24.9
		c-11,2.7-22.2,5.4-33.5,8.1c3-11,6-21.8,9-32.6C103.8,144.4,104,144.3,104.1,144.2"/>
	
		<linearGradient id="SVGID_00000027604318585344276180000003155569487537462161_" gradientUnits="userSpaceOnUse" x1="43.2401" y1="127.2208" x2="315.9856" y2="127.2208">
		<stop  offset="0" style="stop-color:#E5473B"/>
		<stop  offset="1" style="stop-color:#FFFFFF"/>
	</linearGradient>
	<path style="fill:url(#SVGID_00000027604318585344276180000003155569487537462161_);" d="M192.3,132.9v-11.4h16v10.7
		C202.9,132.5,197.6,132.7,192.3,132.9"/>
	
		<linearGradient id="SVGID_00000088849224667806065490000001583899503213789347_" gradientUnits="userSpaceOnUse" x1="43.2401" y1="196.3228" x2="315.9856" y2="196.3228">
		<stop  offset="0" style="stop-color:#E5473B"/>
		<stop  offset="1" style="stop-color:#FFFFFF"/>
	</linearGradient>
	<path style="fill:url(#SVGID_00000088849224667806065490000001583899503213789347_);" d="M201.6,215.3c-1.3,0-2.7-0.4-3.8-1.5
		c-5-5.2-10-10.4-14.9-15.7c-2.2-2.4-1.9-4.5,0.5-6.7c1.2-1.2,2.4-2.4,3.7-3.6c2.1-2,4.2-1.9,6.2,0.2c2.7,2.9,5.3,5.9,8,8.8
		c1.2,1.4,2.3,1.6,3.9,0.7c0.8-0.4,1.6-1.1,2.2-1.7c5.2-5.1,10.4-10.2,15.6-15.2c0.9-0.9,2-1.8,3.1-2.5c1.4-1,2.8-0.9,4.1,0.3
		c1.3,1.2,2.5,2.5,3.7,3.8c0.7,0.7,0.8,1.7,0.3,2.6c-0.8,1.3-1.5,2.7-2.5,3.8c-7.4,7.4-14.8,14.7-22.2,22c-1.1,1.1-2.2,2.1-3.3,3.2
		C204.9,214.8,203.4,215.3,201.6,215.3"/>
</g>
</svg>
